<?xml version="1.0" standalone="no"?>
<!DOCTYPE svg PUBLIC "-//W3C//DTD SVG 20010904//EN"
 "http://www.w3.org/TR/2001/REC-SVG-20010904/DTD/svg10.dtd">
<svg version="1.0" xmlns="http://www.w3.org/2000/svg"
 width="512.000000pt" height="512.000000pt" viewBox="0 0 512.000000 512.000000"
 preserveAspectRatio="xMidYMid meet">
<metadata>
Created by potrace 1.11, written by Peter Selinger 2001-2013
</metadata>
<g transform="translate(0.000000,512.000000) scale(0.100000,-0.100000)"
fill="#000000" stroke="none">
<path d="M695 5102 c-90 -26 -158 -66 -221 -129 -305 -310 -84 -834 352 -833
108 0 221 37 244 79 13 26 12 72 -3 91 -7 8 -38 33 -71 55 -57 38 -116 111
-131 163 l-6 22 155 0 154 0 17 -50 c69 -207 258 -337 474 -325 86 5 145 21
214 60 54 31 128 100 156 145 l18 30 54 -41 c163 -121 205 -241 135 -384 -42
-84 -186 -225 -436 -427 -291 -235 -394 -343 -478 -498 -57 -106 -73 -167 -77
-295 -6 -195 50 -342 203 -533 50 -62 50 -62 45 -121 -6 -59 8 -167 30 -231
36 -108 119 -222 212 -292 71 -54 98 -68 185 -99 59 -20 89 -23 324 -28 l259
-6 1 -702 c1 -701 1 -702 22 -724 24 -24 82 -33 105 -16 39 29 39 37 39 752
l0 696 133 -3 132 -3 1 -696 c1 -777 -2 -740 70 -754 46 -8 80 13 91 57 5 18
9 340 8 715 l0 683 815 0 c625 1 819 3 831 13 48 37 48 90 -2 285 -86 337
-261 659 -476 877 -107 109 -136 133 -244 208 -117 80 -199 125 -314 173 -326
134 -714 179 -1125 128 -277 -34 -576 -164 -736 -319 -11 -11 -34 -33 -52 -49
-30 -28 -31 -28 -25 -5 21 80 115 177 378 388 331 265 477 421 570 610 107
217 107 469 0 682 -80 158 -219 299 -420 426 -82 52 -292 149 -420 194 l-120
42 -505 3 c-454 3 -511 2 -565 -14z"/>
</g>
</svg>
