<?xml version="1.0" encoding="UTF-8"?>
<svg version="1.1" viewBox="0 0 128 128" xmlns="http://www.w3.org/2000/svg" xmlns:xlink="http://www.w3.org/1999/xlink">
    <!--Generated by IJSVG (https://github.com/curthard89/IJSVG)-->
    <g fill="#E2574C">
        <path d="M8,0h112c4.4,0 8,3.6 8,8v112c0,4.4 -3.6,8 -8,8h-112c-4.4,0 -8,-3.6 -8,-8v-112c0,-4.4 3.6,-8 8,-8Z"></path>
        <path fill="#FFFFFF" d="M4,0h96c2.2,0 4,1.8 4,4v92c0,2.2 -1.8,4 -4,4h-96c-2.2,0 -4,-1.8 -4,-4v-92c0,-2.2 1.8,-4 4,-4Z" transform="translate(12, 12)"></path>
        <path fill="#F5F5F5" d="M0,44c0,2.2 1.8,4 4,4h96c2.2,0 4,-1.8 4,-4v-44h-104v44Z" transform="translate(12, 64)"></path>
        <path fill="#E2E0E0" d="M100,4h-96c-2.2,0 -4,-1.8 -4,-4v4c0,2.2 1.8,4 4,4h96c2.2,0 4,-1.8 4,-4v-4c0,2.2 -1.8,4 -4,4Z" transform="translate(12, 104)"></path>
        <path fill="#40545E" d="M21.6,31h-9.8c4.6,-5.6 12.9,-12.8 12.9,-20.1c0,-6.7 -5.3,-10.9 -11.9,-10.9c-6.6,0 -12.6,5.3 -12.6,11.9c0,2 1.3,3.8 3.9,3.8c5.1,0 2.2,-8.5 8.4,-8.5c2.2,0 3.9,1.9 3.9,4c0,1.9 -0.9,3.5 -1.9,4.9c-4.1,5.8 -8.9,10.5 -13.3,15.7c-0.5,0.6 -1.2,1.6 -1.2,2.7c0,2.4 1.8,3.5 4.2,3.5h17.9c2,0 3.9,-1 3.9,-3.5c-0.2,-2.5 -2.1,-3.5 -4.4,-3.5Zm28,-13.7c2.8,-1.8 4.2,-4.6 4.2,-7.9c0,-4 -3.5,-9.4 -10.9,-9.4c-5.7,0 -11.2,4.3 -11.2,8.4c0,1.9 1.2,3.8 3.3,3.8c3.5,0 2.8,-5.1 7.7,-5.1c2.3,0 3.7,1.5 3.7,3.5c0,5.7 -7.3,2.1 -7.3,7.5c0,6.1 8.7,0.8 8.7,8c0,2.7 -2.2,4.8 -4.8,4.8c-5.8,0 -5,-6 -8.5,-6c-1.8,0 -3.9,1.4 -3.9,3.5c0,4.1 4.7,9.7 12.3,9.7c7.3,-0.2 12.9,-5.4 12.9,-11.6c0,-4.1 -2.5,-7.5 -6.2,-9.2Z" transform="translate(36.2, 45.1)"></path>
        <path fill="#2B414D" d="M2,0c-1.1,0 -2,0.9 -2,2v6c0,1.1 0.9,2 2,2c1.1,0 2,-0.9 2,-2v-6c0,-1.1 -0.9,-2 -2,-2Zm104,0c-1.1,0 -2,0.9 -2,2v6c0,1.1 0.9,2 2,2c1.1,0 2,-0.9 2,-2v-6c0,-1.1 -0.9,-2 -2,-2Z" transform="translate(10, 58)"></path>
        <path fill="#E5E5E5" d="M0,0h100v2h-100v-2Z" transform="translate(14, 62)"></path>
        <path fill="#3DB39E" d="M3,0h10c1.7,0 3,1.3 3,3c0,1.7 -1.3,3 -3,3h-10c-1.7,0 -3,-1.3 -3,-3c0,-1.6 1.3,-3 3,-3Z" transform="translate(56, 19)"></path>
        <path fill="#394B54" d="M1.5,0l-1.5,2h9.5l1.2,-2h-9.2Zm36.2,0h-10.8c-0.1,0.3 -0.1,0.7 -0.1,1.1c0,0.4 0,0.7 0.1,0.9h13c-0.8,-0.7 -1.7,-1.2 -2.6,-1.7l0.4,-0.3Z" transform="translate(48.5, 62)"></path>
    </g>
</svg>