<?xml version="1.0" encoding="UTF-8"?>
<svg version="1.1" viewBox="0 0 100 100" xmlns="http://www.w3.org/2000/svg" xmlns:xlink="http://www.w3.org/1999/xlink">
    <!--Generated by IJSVG (https://github.com/curthard89/IJSVG)-->
    <g fill="#2EA9D3">
        <path d="M50,0c27.614,0 50,22.386 50,50c0,27.614 -22.386,50 -50,50c-27.614,0 -50,-22.386 -50,-50c0,-27.614 22.386,-50 50,-50Z"></path>
        <path fill="#FFFFFF" d="M38,6c0,-3.313 -8.507,-6 -19,-6c-10.493,0 -19,2.687 -19,6v51.253c5.859,2.409 12.272,3.747 19,3.747c6.728,0 13.141,-1.338 19,-3.747v-51.253Z" transform="translate(31, 39)"></path>
        <path fill="#E2574C" d="M32,5c0,-2.762 -7.163,-5 -16,-5c-8.837,0 -16,2.238 -16,5v50.369c5.025,1.697 10.402,2.631 16,2.631c5.598,0 10.975,-0.934 16,-2.631v-50.369Z" transform="translate(34, 42)"></path>
        <path fill="#E5E5E5" d="M19,0c10.493,0 19,2.687 19,6c0,3.313 -8.507,6 -19,6c-10.493,0 -19,-2.687 -19,-6c0,-3.313 8.507,-6 19,-6Z" transform="translate(31, 39)"></path>
        <path fill="#E5665C" d="M0,0v2.01c3.376,1.666 9.273,2.773 16,2.773c6.727,0 12.624,-1.107 16,-2.773v-2.01c-3.367,1.671 -9.261,2.783 -16,2.783c-6.738,0 -12.633,-1.112 -16,-2.783Z" transform="translate(34, 48.217)"></path>
        <path fill="#E9EEEE" d="M2.996,76.428c-1.01,-0.154 -2.007,-0.348 -2.996,-0.562l26.508,-67.06l-0.005,-0.012l0.013,-0.007l0.006,-0.015l0.012,0.004l15.612,-8.776l1.447,2.63l-14.698,8.282l-25.899,65.516Z" transform="translate(39.414, 23)"></path>
        <path fill="#CB4E44" d="M16,0c-8.837,0 -16,2.238 -16,5v1.227c3.376,1.666 9.273,2.773 16,2.773c6.727,0 12.624,-1.107 16,-2.773v-1.227c0,-2.762 -7.163,-5 -16,-5Z" transform="translate(34, 42)"></path>
        <path fill="#E67067" d="M5,13.5c0,-1.381 -1.119,-2.5 -2.5,-2.5c-1.381,0 -2.5,1.119 -2.5,2.5c0,1.381 1.119,2.5 2.5,2.5c1.381,0 2.5,-1.119 2.5,-2.5Zm2.5,2.5c-0.828,0 -1.5,0.672 -1.5,1.5c0,0.828 0.672,1.5 1.5,1.5c0.828,0 1.5,-0.672 1.5,-1.5c0,-0.828 -0.672,-1.5 -1.5,-1.5Zm-4,7c-1.381,0 -2.5,1.119 -2.5,2.5c0,1.381 1.119,2.5 2.5,2.5c1.381,0 2.5,-1.119 2.5,-2.5c0,-1.381 -1.119,-2.5 -2.5,-2.5Zm13,10c0.828,0 1.5,-0.672 1.5,-1.5c0,-0.828 -0.672,-1.5 -1.5,-1.5c-0.828,0 -1.5,0.672 -1.5,1.5c0,0.828 0.672,1.5 1.5,1.5Zm0.5,5c0,-1.104 -0.896,-2 -2,-2c-1.104,0 -2,0.896 -2,2c0,1.104 0.896,2 2,2c1.104,0 2,-0.896 2,-2Zm-6,5c-0.553,0 -1,0.447 -1,1c0,0.553 0.447,1 1,1c0.553,0 1,-0.447 1,-1c0,-0.553 -0.447,-1 -1,-1Zm5.5,4c-0.828,0 -1.5,0.672 -1.5,1.5c0,0.828 0.672,1.5 1.5,1.5c0.828,0 1.5,-0.672 1.5,-1.5c0,-0.828 -0.672,-1.5 -1.5,-1.5Zm-10.5,-45c1.104,0 2,-0.447 2,-1c0,-0.553 -0.896,-1 -2,-1c-1.104,0 -2,0.447 -2,1c0,0.553 0.896,1 2,1Zm8,0c0,-0.552 -0.672,-1 -1.5,-1c-0.828,0 -1.5,0.448 -1.5,1c0,0.553 0.672,1 1.5,1c0.828,0 1.5,-0.447 1.5,-1Z" transform="translate(41, 45)"></path>
        <path fill="#D65348" d="M0,49.136c1.311,0.442 2.643,0.837 4,1.171v-48.89c-1.559,-0.402 -2.91,-0.881 -4,-1.417v49.136Z" transform="translate(34, 48.233)"></path>
        <path fill="#E67067" d="M0,50.307c1.356,-0.334 2.689,-0.729 4,-1.171v-49.136c-1.091,0.536 -2.441,1.015 -4,1.417v48.89Z" transform="translate(62, 48.233)"></path>
        <path fill="#F0CC6B" d="M10,12v9.949c-5.605,-0.506 -10,-5.212 -10,-10.949c0,-6.075 4.925,-11 11,-11c6.075,0 11,4.925 11,11c0,0.34 -0.041,0.669 -0.072,1h-11.928Z" transform="translate(21, 33)"></path>
        <path fill="#FFFFFF" d="M12,7.10543e-15c-6.627,0 -12,5.373 -12,12c0,6.29 4.842,11.44 11,11.949v-3.008c-1.735,-0.192 -3.318,-0.881 -4.612,-1.915l4.612,-4.612l1.414,-1.414h11.536c0.027,-0.331 0.05,-0.663 0.05,-1c0,-6.627 -5.373,-12 -12,-12Zm-7.025,17.611c-1.035,-1.294 -1.722,-2.876 -1.914,-4.611h6.525l-4.611,4.611Zm-1.916,-6.611c0.192,-1.735 0.878,-3.319 1.914,-4.614l4.613,4.614h-6.527Zm3.327,-6.028c1.294,-1.035 2.878,-1.722 4.614,-1.914v6.527l-4.614,-4.613Zm6.614,-1.913c1.735,0.192 3.319,0.878 4.614,1.914l-4.614,4.613v-6.527Zm6.028,3.327c1.035,1.294 1.722,2.878 1.914,4.614h-6.527l4.613,-4.614Z" transform="translate(20, 32)"></path>
        <path fill="#DA655B" d="M4,1.417c-1.559,-0.402 -2.91,-0.881 -4,-1.417v1.994c1.089,0.538 2.443,1.015 4,1.417v-1.994Z" transform="translate(34, 48.233)"></path>
        <path fill="#E7776E" d="M0,3.411c1.557,-0.402 2.911,-0.88 4,-1.417v-1.994c-1.091,0.536 -2.441,1.015 -4,1.417v1.994Z" transform="translate(62, 48.234)"></path>
        <path fill="#E9EEEE" d="M26.534,8.777l-0.012,-0.004l-0.006,0.015l-0.013,0.007l0.005,0.012l-26.508,67.06l1.091,0.222c0.605,0.116 1.212,0.231 1.825,0.326l0.064,0.011l0.016,0.002l25.898,-65.515l14.698,-8.282l-1.445,-2.631l-15.613,8.777Z" transform="translate(39.413, 23)"></path>
    </g>
</svg>