<?xml version="1.0" encoding="UTF-8"?>
<svg version="1.1" viewBox="0 0 128 128" xmlns="http://www.w3.org/2000/svg" xmlns:xlink="http://www.w3.org/1999/xlink">
    <!--Generated by IJSVG (https://github.com/curthard89/IJSVG)-->
    <g fill="#F4F0D3">
        <path d="M100.1,100.6c5.5,2.4 20.7,9.3 26.1,11.5c0.6,0.3 2,0.2 1.8,-1.1c-1.2,-13 -8.5,-87.5 -9.8,-100.7c-0.2,-1.9 -0.8,-2.2 -2.2,-2.7c-4.3,-1.6 -14.7,-5.3 -19,-6.8c-1.5,-0.6 -2.4,-0.6 -4,0c-6.7,1.9 -27.9,8.4 -27.9,8.4c0,0 -22.1,-6.7 -29,-8.6c-1.5,-0.5 -2.3,-0.6 -4,0.1c-4.4,1.4 -14.6,5.2 -19,6.8c-1.8,0.7 -2,1.5 -2.2,2.7c-1.4,12.9 -9.4,87.7 -10.8,100.8c-0.1,1.5 1.2,1.4 2.4,1c6,-2.4 21.2,-9 26.6,-11.2c1.1,-0.5 2.2,-0.8 4,0c6.1,2.5 24,10.6 29.9,13c1.3,0.6 2.5,0.7 4,0c5.9,-2.5 23.2,-10.5 29,-13.1c1.1,-0.6 2.8,-0.7 4.1,-0.1Z" transform="translate(-0.1, 13.8)"></path>
        <path fill="#E8E4C8" d="M34.8,0.1c-0.8,-0.1 -1.6,0 -2.7,0.4c-4.4,1.4 -14.6,5.2 -19,6.8c-1.8,0.7 -2,1.5 -2.2,2.7c-1.4,12.9 -9.4,87.7 -10.8,100.8c-0.1,1.5 1.2,1.4 2.4,1c6,-2.4 21.2,-9 26.6,-11.2c0.8,-0.3 1.5,-0.6 2.6,-0.4l3.1,-100.1Zm59.7,0c-0.4,0.1 -0.8,0.2 -1.3,0.4c-6.7,2 -27.1,8.2 -28,8.5v105c0.6,0 1.3,-0.2 2,-0.5c5.9,-2.5 23.2,-10.5 29,-13.1c0.4,-0.2 0.9,-0.3 1.4,-0.4l-3.1,-99.9Z" transform="translate(-0.1, 14)"></path>
        <path fill="#EFC75E" d="M38.3,102.6l17.5,-17.5l17.8,17.8c3.7,-1.7 7.3,-3.4 10.2,-4.7l-63.9,-63.8l31,-31c-3.2,-1 -7.4,-2.2 -11.4,-3.4l-27,27l-11.1,-11.1c-0.4,3.8 -0.9,8.4 -1.4,13.5l48.4,48.4l-20.3,20.3c2.8,1.2 6.5,2.8 10.2,4.5Z" transform="translate(8.4, 17.9)"></path>
        <path fill="#E3BD59" d="M25.3,15.3l0.5,-15.3l-13.3,13.2l-11.1,-11c-0.4,3.8 -0.9,8.4 -1.4,13.5l24.6,24.6l0.4,-14.5l-5,-5l5.3,-5.5Zm31.3,57l16.9,16.9c3.7,-1.7 7.3,-3.4 10.2,-4.7l-27.1,-27.1v14.9Z" transform="translate(8.4, 31.6)"></path>
        <path fill="#E2574C" d="M29,3.55271e-15c16,0 29,13 29,29.1c0,0.3 -0.1,7.8 -2.6,13.1c-5.9,13.7 -20.1,28.2 -24.8,32.9c-1.2,1.1 -1.7,1.3 -3.2,-0.1c-4.8,-4.7 -18.8,-19 -24.7,-32.6c-2.1,-4 -2.7,-12.6 -2.7,-13.3c0,-16.1 13,-29.1 29,-29.1Z" transform="translate(51, -7.10543e-15)"></path>
        <path fill="#FFFFFF" d="M15,0c-8.3,0 -15,6.7 -15,15c0,8.3 6.7,15 15,15c8.3,0 15,-6.7 15,-15c0,-8.3 -6.7,-15 -15,-15Zm0,24c-5,0 -9,-4 -9,-9c0,-5 4,-9 9,-9c5,0 9,4 9,9c0,5 -4,9 -9,9Z" transform="translate(65, 14)"></path>
    </g>
</svg>