<?xml version="1.0" encoding="UTF-8"?>
<svg width="26" height="26" version="1.1" viewBox="0 -49.2858 25.7143 25.7143" xmlns="http://www.w3.org/2000/svg" xmlns:xlink="http://www.w3.org/1999/xlink">
    <!--Generated by IJSVG (https://github.com/curthard89/IJSVG)-->
    <g fill="#000000">
        <path d="M21.4286,17.8293c0,0.435269 -0.200893,1.28906 -0.368304,1.69085c-0.502233,1.10491 -2.61161,1.90848 -3.76675,1.90848c-1.12165,0 -2.14286,-0.45201 -3.18081,-0.837055c-3.6663,-1.33929 -7.65068,-5.32367 -8.98997,-8.98997c-0.385045,-1.03795 -0.837055,-2.05915 -0.837055,-3.18081c0,-1.15514 0.803573,-3.26451 1.90848,-3.76675c0.401786,-0.167411 1.25558,-0.368304 1.69085,-0.368304c0.083705,0 0.184152,0 0.267858,0.033483c0.301339,0.100446 1.54018,2.54465 1.80804,3.0134c0.184152,0.318081 0.552456,0.703126 0.552456,1.08817c0,0.736608 -2.19308,1.82478 -2.19308,2.47768c0,0.334822 0.30134,0.75335 0.468751,1.05469c1.23884,2.20982 2.76228,3.73326 4.9721,4.9721c0.30134,0.167411 0.719867,0.468751 1.05469,0.468751c0.652902,0 1.74107,-2.19308 2.47768,-2.19308c0.385046,0 0.770091,0.368304 1.08817,0.552456c0.468751,0.267857 2.91295,1.5067 3.0134,1.80804c0.033482,0.083705 0.033482,0.184152 0.033482,0.267857Zm4.28572,-13.0078c0,-2.66183 -2.1596,-4.82143 -4.82143,-4.82143h-16.0714c-2.66183,0 -4.82143,2.1596 -4.82143,4.82143v16.0714c0,2.66183 2.1596,4.82143 4.82143,4.82143h16.0714c2.66183,0 4.82143,-2.1596 4.82143,-4.82143Z" transform="translate(0, -49.2858)"></path>
    </g>
</svg>