<?xml version="1.0" encoding="iso-8859-1"?>
<!-- Generator: Adobe Illustrator 19.0.0, SVG Export Plug-In . SVG Version: 6.00 Build 0)  -->
<svg version="1.1" id="Layer_1" xmlns="http://www.w3.org/2000/svg" xmlns:xlink="http://www.w3.org/1999/xlink" x="0px" y="0px"
	 viewBox="0 0 155.883 155.883" style="enable-background:new 0 0 155.883 155.883;" xml:space="preserve">
<g>
	<g>
		<g>
			<path style="fill:#AD744F;" d="M78.66,68.277h52.375c-0.066-2.498-2.188-6.777-2.188-6.777s-0.152-7.828-1.502-11.213
				C125.579,45.854,117.848,40,117.848,40s-5.49-10.889-10.492-14.172c-3.789-2.484-14.008-2.328-14.008-2.328
				s-8.963-6.223-14.688-6.223V68.277z"/>
		</g>
		<g>
			<path style="fill:#FFD01F;" d="M78.66,68.277h43.641c-0.746-23.467-19.992-42.264-43.641-42.264V68.277z"/>
		</g>
		<g>
			<path style="fill:#FF9600;" d="M86.042,32.289c-1,0-1,2.422,0,2.422C88.042,34.711,88.042,32.289,86.042,32.289z"/>
		</g>
		<g>
			<path style="fill:#FF9600;" d="M96.042,34.598c-3,0-3,4.805,0,4.805C100.042,39.402,100.042,34.598,96.042,34.598z"/>
		</g>
		<g>
			<path style="fill:#FF9600;" d="M93.042,44.547c-2,0-2,3.906,0,3.906C96.042,48.453,96.042,44.547,93.042,44.547z"/>
		</g>
		<g>
			<path style="fill:#FF9600;" d="M108.042,44.066c-2,0-2,3.867,0,3.867C111.042,47.934,111.042,44.066,108.042,44.066z"/>
		</g>
		<g>
			<path style="fill:#FF9600;" d="M105.042,58.684c-2,0-2,3.633,0,3.633C108.042,62.316,108.042,58.684,105.042,58.684z"/>
		</g>
		<g>
			<path style="fill:#FF9600;" d="M113.042,57.211c-1,0-1,2.578,0,2.578C115.042,59.789,115.042,57.211,113.042,57.211z"/>
		</g>
	</g>
	<g>
		<polygon style="fill:#ABD9D5;" points="90.066,155.883 33.318,155.883 24.848,47.883 98.536,47.883 		"/>
	</g>
	<g>
		<polygon style="fill:#CDE8E6;" points="60.042,155.883 33.318,155.883 24.848,47.883 60.042,47.883 		"/>
	</g>
	<g>
		<polygon style="fill:#DDF0EE;" points="84.138,141.883 39.247,141.883 30.777,47.883 92.607,47.883 		"/>
	</g>
	<g>
		<polygon style="fill:#FFE379;" points="32.684,68.607 39.247,141.449 84.138,141.449 90.7,68.607 		"/>
	</g>
	<g>
		<polygon style="fill:#FFB000;" points="62.116,68.607 32.684,68.607 39.247,141.449 62.116,141.449 		"/>
	</g>
	<path style="fill:#FFFFFF;" d="M79.555,127.346c-0.215,2.33-2.278,4.043-4.606,3.828l0,0c-2.329-0.215-4.043-2.277-3.828-4.605
		l4.048-43.857c0.215-2.33,2.278-4.045,4.606-3.828l0,0c2.329,0.215,4.043,2.275,3.828,4.605L79.555,127.346z"/>
	<g>
		<g>
			<polygon style="fill:#F62D8D;" points="33.073,0 38.061,47.432 46.944,47.432 41.956,0 			"/>
		</g>
	</g>
</g>
<g>
</g>
<g>
</g>
<g>
</g>
<g>
</g>
<g>
</g>
<g>
</g>
<g>
</g>
<g>
</g>
<g>
</g>
<g>
</g>
<g>
</g>
<g>
</g>
<g>
</g>
<g>
</g>
<g>
</g>
</svg>
